<!DOCTYPE svg PUBLIC "-//W3C//DTD SVG 1.1//EN" "http://www.w3.org/Graphics/SVG/1.1/DTD/svg11.dtd">
<!-- Uploaded to: SVG Repo, www.svgrepo.com, Transformed by: SVG Repo Mixer Tools -->
<svg version="1.1" id="Layer_1" xmlns="http://www.w3.org/2000/svg" xmlns:xlink="http://www.w3.org/1999/xlink" viewBox="0 0 512 512" xml:space="preserve" width="800px" height="800px" fill="#4169e1">
<g id="SVGRepo_bgCarrier" stroke-width="0"/>
<g id="SVGRepo_tracerCarrier" stroke-linecap="round" stroke-linejoin="round"/>
<g id="SVGRepo_iconCarrier"> <circle style="fill:#4169e1;" cx="256" cy="256" r="256"/> <path style="fill:#FFFFFF;" d="M356,456.376H156c-6.6,0-12-5.4-12-12v-376c0-6.6,5.4-12,12-12h200c6.6,0,12,5.4,12,12v376 C368,450.976,362.6,456.376,356,456.376z"/> <rect x="156" y="88.4" style="fill:#232323;" width="200" height="320"/> <g> <path style="fill:#CCCBCA;" d="M279.792,76.376h-48c-2.2,0-4-1.8-4-4l0,0c0-2.2,1.8-4,4-4h48c2.2,0,4,1.8,4,4l0,0 C283.792,74.576,281.992,76.376,279.792,76.376z"/> <path style="fill:#CCCBCA;" d="M280,432.376h-48c-2.2,0-4-1.8-4-4l0,0c0-2.2,1.8-4,4-4h48c2.2,0,4,1.8,4,4l0,0 C284,430.576,282.2,432.376,280,432.376z"/> </g> <rect x="184.8" y="273.68" style="fill:#FFFFFF;" width="18.984" height="41.64"/> <rect x="215.664" y="249.84" style="fill:#4169e1;" width="18.984" height="65.432"/> <rect x="246.504" y="223.088" style="fill:#FFFFFF;" width="18.984" height="92.2"/> <rect x="277.352" y="196.312" style="fill:#4169e1;" width="18.984" height="118.968"/> <rect x="308.2" y="178.472" style="fill:#FFFFFF;" width="18.984" height="136.8"/> </g>
</svg>